<svg width="151" height="39" viewBox="0 0 151 39" fill="none" xmlns="http://www.w3.org/2000/svg">
<g clip-path="url(#clip0_1010_26063)">
<mask id="mask0_1010_26063" style="mask-type:alpha" maskUnits="userSpaceOnUse" x="0" y="0" width="151" height="39">
<path d="M151 0H0V39H151V0Z" fill="white"/>
</mask>
<g mask="url(#mask0_1010_26063)">
<path d="M12.2652 3.93918V34.4398L3.69207 37.7004C1.65648 37.709 0 37.3481 0 35.3183V3.68787C2.08729 0.375761 1.65648 1.90079 3.69207 1.90079L12.2652 3.93918Z" fill="url(#paint0_linear_1010_26063)"/>
<path d="M32.6018 23.7842L20.0694 36.2808C18.3243 38.0215 15.9571 38.9996 13.4888 39.0001H3.69207C2.71322 38.999 1.77479 38.6107 1.08264 37.9205C0.390491 37.2304 0.00114018 36.2946 0 35.3185C0.119591 35.6037 0.307653 35.8552 0.547634 36.0509C0.787614 36.2466 1.07215 36.3805 1.37621 36.4407C1.68027 36.501 1.99451 36.4858 2.2913 36.3965C2.58808 36.3072 2.85829 36.1465 3.07816 35.9286L12.9976 26.0373C14.4456 24.5944 16.4089 23.7839 18.456 23.7842H32.6018Z" fill="url(#paint1_linear_1010_26063)"/>
<path d="M32.6018 15.2159L20.0694 2.71713C19.2052 1.85553 18.1792 1.17212 17.0501 0.705908C15.921 0.2397 14.7108 -0.000168428 13.4888 8.87303e-08H3.69207C2.71322 0.00113703 1.77479 0.389379 1.08264 1.07956C0.390491 1.76974 0.00114018 2.70549 0 3.68155C0.119777 3.39657 0.307867 3.14526 0.547766 2.94968C0.787664 2.75409 1.07204 2.6202 1.37593 2.55977C1.67982 2.49933 1.99395 2.51419 2.29074 2.60305C2.58753 2.6919 2.85791 2.85204 3.07816 3.06939L12.9976 12.9606C14.4453 14.4042 16.4087 15.2154 18.456 15.2159H32.6018Z" fill="url(#paint2_linear_1010_26063)"/>
<path d="M54.023 11.7234V14.6253H47.5866C45.9754 14.6253 44.8043 15.047 44.0734 15.8904C43.3424 16.7338 42.9762 18.1149 42.9748 20.0338C42.9748 21.9368 43.3338 23.3101 44.0518 24.1535C44.7698 24.9969 45.9452 25.4186 47.578 25.4186H54.0144V28.3205H47.5866C45.1525 28.3205 43.2907 27.636 42.0011 26.2671C40.7116 24.8981 40.0654 22.8218 40.0625 20.0381C40.0625 17.2343 40.7087 15.1487 42.0011 13.7811C43.2936 12.4136 45.1554 11.7291 47.5866 11.7277L54.023 11.7234Z" fill="#141414"/>
<path d="M54.2655 28.5675H47.5879C45.0956 28.5675 43.1548 27.8522 41.8236 26.4389C40.4924 25.0256 39.8203 22.8755 39.8203 20.0359C39.8203 17.1963 40.4945 15.0205 41.8236 13.6093C43.1526 12.1981 45.0956 11.4785 47.5879 11.4785H54.2655V14.8723H47.5879C46.0585 14.8723 44.9405 15.2696 44.2598 16.0536C43.5791 16.8376 43.2237 18.1887 43.2237 20.0359C43.2237 21.8831 43.5684 23.1998 44.2491 23.9945C44.9297 24.7893 46.0434 25.1759 47.5879 25.1759H54.2655V28.5675ZM47.5879 11.9704C45.2378 11.9704 43.4176 12.6363 42.1812 13.9465C40.9447 15.2568 40.3136 17.3102 40.3136 20.0359C40.3136 22.7616 40.9426 24.785 42.1812 26.1017C43.4197 27.4183 45.2356 28.0756 47.5879 28.0756H53.7765V25.6656H47.5836C45.8883 25.6656 44.639 25.2103 43.8699 24.3124C43.1009 23.4146 42.7261 21.9884 42.7261 20.0338C42.7261 18.0791 43.1139 16.6164 43.8829 15.7379C44.6519 14.8594 45.9055 14.3868 47.5836 14.3868H53.7722V11.9683L47.5879 11.9704Z" fill="#141414"/>
<path d="M66.4726 11.7233C67.2968 11.7036 68.1172 11.8414 68.8895 12.1293C69.5146 12.3654 70.0822 12.7315 70.5545 13.2032C70.9906 13.6559 71.319 14.2006 71.5153 14.797C71.7219 15.4065 71.826 16.0459 71.8233 16.6893C71.8235 17.2159 71.7577 17.7405 71.6273 18.2509C71.4972 18.7633 71.2895 19.2529 71.0112 19.7029C70.7265 20.1612 70.3617 20.565 69.9342 20.895C69.4475 21.2596 68.8944 21.5266 68.3057 21.6811L72.183 28.3204H68.9304L65.1414 21.9088H60.8009C60.743 21.9004 60.6838 21.9059 60.6284 21.9248C60.573 21.9436 60.5228 21.9753 60.482 22.0172C60.4412 22.0591 60.411 22.1101 60.3938 22.1659C60.3766 22.2218 60.3729 22.2809 60.3831 22.3384V28.3376H57.4729V21.7563C57.4729 20.8212 57.6783 20.1489 58.089 19.7394C58.4997 19.3298 59.1696 19.1222 60.0987 19.1165H66.5825C66.9457 19.1256 67.3068 19.0583 67.6422 18.9189C67.9174 18.8035 68.1622 18.6264 68.3574 18.4012C68.5405 18.1848 68.6788 17.9344 68.7645 17.6645C68.8547 17.387 68.9005 17.097 68.9002 16.8053C68.9097 16.2432 68.7128 15.697 68.3466 15.2695C67.9761 14.8399 67.3881 14.6252 66.5825 14.6252H57.4492V11.7233H66.4726Z" fill="#141414"/>
<path d="M72.5939 28.5676H68.8006L65.003 22.1517H60.8026C60.6604 22.1517 60.6303 22.1796 60.6303 22.3235V28.5676H57.229V21.7586C57.229 20.7599 57.4595 20.0231 57.9161 19.5677C58.3728 19.1124 59.1052 18.8804 60.0896 18.8804H66.5733C66.9024 18.8897 67.2298 18.8297 67.534 18.7043C67.7745 18.6032 67.9889 18.449 68.1609 18.2532C68.322 18.064 68.4442 17.8451 68.5206 17.6088C68.6031 17.3549 68.6452 17.0896 68.6455 16.8227C68.6559 16.3182 68.4786 15.8278 68.1479 15.4459C67.8291 15.0721 67.2992 14.881 66.5733 14.881H57.2031V11.4765H66.4656C67.3219 11.4593 68.1736 11.6051 68.9751 11.9061C69.6323 12.1581 70.2284 12.546 70.7242 13.0445C71.1842 13.5216 71.5322 14.0945 71.7431 14.722C71.9572 15.3574 72.0656 16.0235 72.064 16.6938C72.0636 17.2408 71.9948 17.7855 71.8594 18.3155C71.7224 18.8521 71.5046 19.3649 71.2132 19.8362C70.6252 20.7805 69.7209 21.4867 68.6606 21.8295L72.5939 28.5676ZM69.0742 28.0757H71.7366L67.9196 21.5331L68.2255 21.4472C68.7835 21.3008 69.3079 21.0485 69.77 20.704C70.1763 20.3911 70.5235 20.0085 70.7953 19.5742C71.0611 19.1466 71.2594 18.6808 71.3834 18.1931C71.5085 17.7016 71.5722 17.1966 71.5729 16.6895C71.5744 16.0732 71.4748 15.4608 71.2778 14.8767C71.0917 14.3143 70.7819 13.8006 70.3709 13.3731C69.9234 12.9239 69.3852 12.5746 68.792 12.3486C68.049 12.0731 67.2602 11.9411 66.4678 11.9598H57.6964V14.3783H66.5733C67.45 14.3783 68.107 14.6275 68.5249 15.1172C68.9327 15.5876 69.1541 16.1903 69.1474 16.812C69.1479 17.13 69.0977 17.4461 68.9988 17.7485C68.9038 18.0491 68.7501 18.3279 68.5464 18.569C68.3265 18.8219 68.0518 19.0217 67.743 19.1532C67.3751 19.3042 66.9797 19.3774 66.5819 19.368H60.1004C59.2517 19.368 58.6377 19.5506 58.2759 19.9114C57.914 20.2723 57.7309 20.893 57.7309 21.7565V28.0736H60.1456V22.3214C60.1373 22.2322 60.1488 22.1422 60.1793 22.0579C60.2098 21.9737 60.2586 21.8971 60.3222 21.8338C60.3857 21.7704 60.4625 21.7218 60.547 21.6913C60.6315 21.6609 60.7217 21.6494 60.8112 21.6577H65.2938L69.0742 28.0757Z" fill="#141414"/>
<path d="M83.9036 11.7234C86.3448 11.7234 88.2067 12.4122 89.4891 13.7897C90.7714 15.1673 91.4177 17.2572 91.4277 20.0595C91.4277 22.8447 90.7815 24.921 89.4891 26.2885C88.1966 27.6561 86.3348 28.3362 83.9036 28.3291H81.6375C79.2048 28.3291 77.343 27.6489 76.052 26.2885C74.761 24.9282 74.1148 22.8519 74.1133 20.0595C74.1133 17.2558 74.7595 15.1658 76.052 13.7897C77.3444 12.4136 79.2063 11.7249 81.6375 11.7234H83.9036ZM81.6375 14.6253C80.0262 14.6253 78.8551 15.0549 78.1242 15.914C77.3933 16.7732 77.0278 18.1586 77.0278 20.0703C77.0278 21.9705 77.3868 23.3387 78.1048 24.175C78.8228 25.0112 80.0004 25.4258 81.6375 25.4186H83.9057C85.4997 25.4186 86.6629 24.9969 87.3953 24.1535C88.1277 23.3101 88.4939 21.9368 88.4939 20.0338C88.4939 18.1336 88.1349 16.7567 87.4168 15.9033C86.6988 15.0498 85.5313 14.6203 83.9143 14.6145L81.6375 14.6253Z" fill="#141414"/>
<path d="M83.9048 28.5675H81.6387C79.1464 28.5675 77.2078 27.8565 75.8744 26.4496C74.541 25.0428 73.8711 22.8991 73.8711 20.0617C73.8711 17.2243 74.5453 15.0398 75.8744 13.6179C77.2035 12.196 79.1464 11.47 81.6387 11.47H83.9069C86.3992 11.47 88.34 12.1917 89.6733 13.6179C91.0067 15.0441 91.6745 17.2028 91.6745 20.0617C91.6745 22.9206 91.0003 25.0492 89.6712 26.4496C88.3421 27.8501 86.397 28.5675 83.9048 28.5675ZM81.6387 11.9683C79.2886 11.9683 77.4706 12.6384 76.2341 13.9573C74.9977 15.2761 74.3644 17.3338 74.3644 20.0596C74.3644 22.7853 74.9934 24.8043 76.2341 26.1103C77.4749 27.4162 79.2886 28.0735 81.6387 28.0735H83.9069C86.2592 28.0735 88.0772 27.4141 89.3136 26.1103C90.5501 24.8065 91.1812 22.7681 91.1812 20.0596C91.1812 17.351 90.55 15.2804 89.3115 13.9616C88.0729 12.6427 86.2548 11.9726 83.9048 11.9726L81.6387 11.9683ZM83.9069 25.6657H81.6387C79.9456 25.6657 78.6962 25.2146 77.9272 24.3253C77.1582 23.4361 76.7813 22.012 76.7813 20.0596C76.7813 18.1071 77.1712 16.6379 77.938 15.7444C78.7048 14.8508 79.9607 14.3783 81.6387 14.3783H83.9069C85.5871 14.3783 86.8278 14.8379 87.5968 15.7444C88.3658 16.6508 88.7406 18.0813 88.7406 20.0402C88.7406 21.9991 88.3508 23.434 87.5839 24.321C86.8171 25.2081 85.5677 25.6657 83.9048 25.6657H83.9069ZM81.6387 14.8701C80.1114 14.8701 78.9913 15.2718 78.3128 16.0622C77.6343 16.8527 77.2745 18.2102 77.2745 20.0596C77.2745 21.9089 77.6192 23.2192 78.2999 24.0053C78.9806 24.7914 80.0942 25.1738 81.6387 25.1738H83.9069C85.4148 25.1738 86.5306 24.7764 87.2112 23.9924C87.8919 23.2084 88.2474 21.866 88.2474 20.0338C88.2474 18.2016 87.9027 16.8656 87.2199 16.0622C86.537 15.2589 85.4341 14.8701 83.9069 14.8701H81.6387Z" fill="#141414"/>
<path d="M97.7383 28.3206H94.8281V15.0356C94.8281 13.9545 95.1405 13.0817 95.7651 12.4173C96.3898 11.7529 97.3534 11.4235 98.6559 11.4293C99.8047 11.4293 100.68 11.7035 101.282 12.2519C101.93 12.877 102.416 13.6494 102.699 14.5029L107.557 25.0987C107.651 25.2894 107.785 25.4573 107.951 25.5906C108.144 25.7307 108.379 25.8004 108.617 25.7882C108.749 25.7963 108.882 25.7776 109.007 25.7333C109.132 25.689 109.247 25.62 109.345 25.5304C109.431 25.441 109.499 25.3349 109.544 25.2186C109.588 25.1023 109.608 24.9782 109.603 24.8538V11.7235H112.539V24.9763C112.539 26.0738 112.22 26.9566 111.589 27.6204C110.958 28.2841 109.997 28.6149 108.716 28.6149C108.205 28.6212 107.696 28.5487 107.208 28.4001C106.793 28.2723 106.408 28.0634 106.075 27.7858C105.749 27.5086 105.469 27.1807 105.248 26.8149C105.004 26.4081 104.805 25.9759 104.655 25.5261L99.7846 14.9433C99.7088 14.7311 99.5679 14.548 99.382 14.42C99.196 14.2921 98.9744 14.2256 98.7485 14.2302C98.6122 14.2213 98.4754 14.2398 98.3463 14.2844C98.2172 14.3291 98.0984 14.399 97.9968 14.4901C97.9084 14.5832 97.8399 14.6934 97.7955 14.8137C97.751 14.9341 97.7316 15.0622 97.7383 15.1903V28.3206Z" fill="#141414"/>
<path d="M108.71 28.8617C108.172 28.872 107.635 28.7996 107.119 28.6469C106.673 28.5084 106.259 28.2836 105.901 27.9853C105.554 27.6917 105.257 27.3434 105.023 26.9543C104.77 26.5353 104.565 26.0902 104.409 25.6269L99.56 15.0462C99.5037 14.877 99.3944 14.7304 99.2482 14.6279C99.102 14.5254 98.9266 14.4725 98.7479 14.477C98.644 14.4678 98.5394 14.4796 98.4402 14.5117C98.341 14.5439 98.2493 14.5956 98.1706 14.6638C98.1055 14.7344 98.0554 14.8174 98.0236 14.9079C97.9917 14.9984 97.9787 15.0944 97.9854 15.1901V28.5674H94.582V15.0354C94.582 13.8949 94.9201 12.9562 95.5858 12.2431C96.2514 11.53 97.2875 11.1692 98.651 11.1692C99.8594 11.1692 100.805 11.4677 101.451 12.0584C102.128 12.7099 102.637 13.5155 102.933 14.4061L107.784 24.9846C107.862 25.1408 107.973 25.278 108.109 25.3863C108.259 25.4899 108.439 25.5399 108.62 25.5281C108.72 25.536 108.82 25.5238 108.916 25.492C109.011 25.4603 109.098 25.4097 109.173 25.3434C109.237 25.2767 109.287 25.1977 109.319 25.1113C109.351 25.0249 109.366 24.9328 109.361 24.8407V11.4763H112.788V24.9761C112.788 26.1338 112.446 27.081 111.771 27.7898C111.097 28.4987 110.057 28.8617 108.71 28.8617ZM98.7479 13.9851C99.0213 13.9806 99.2894 14.0608 99.5151 14.2147C99.7408 14.3686 99.9131 14.5886 100.008 14.8443L104.868 25.44C105.013 25.8773 105.207 26.2973 105.445 26.6923C105.652 27.0357 105.914 27.3432 106.22 27.603C106.529 27.8603 106.885 28.0538 107.269 28.1722C107.737 28.3116 108.223 28.3783 108.71 28.3698C109.917 28.3698 110.824 28.0605 111.405 27.4505C111.987 26.8405 112.286 26.0028 112.286 24.9761V11.9682H109.856V24.8558C109.863 25.014 109.837 25.1719 109.78 25.3197C109.723 25.4675 109.636 25.602 109.525 25.7149C109.404 25.8276 109.262 25.9148 109.107 25.9713C108.952 26.0278 108.787 26.0524 108.622 26.0436C108.328 26.0561 108.038 25.9682 107.801 25.7944C107.609 25.6384 107.452 25.4428 107.343 25.2209L102.47 14.6058C102.197 13.7836 101.73 13.0389 101.109 12.4343C100.559 11.9317 99.7323 11.6761 98.651 11.6761C97.4275 11.6761 96.5185 11.9854 95.9455 12.5932C95.3725 13.2011 95.0839 14.0323 95.0839 15.044V28.0734H97.4921V15.1858C97.4848 15.0254 97.5103 14.8652 97.5669 14.715C97.6236 14.5647 97.7102 14.4275 97.8217 14.3116C97.9463 14.1982 98.0925 14.1109 98.2516 14.0548C98.4107 13.9987 98.5795 13.975 98.7479 13.9851Z" fill="#141414"/>
<path d="M125.698 11.7234C128.131 11.7234 129.993 12.4122 131.284 13.7897C132.575 15.1673 133.221 17.2572 133.223 20.0595C133.223 22.8447 132.576 24.921 131.284 26.2885C129.992 27.6561 128.13 28.3362 125.698 28.3291H123.426C120.992 28.3291 119.13 27.6489 117.84 26.2885C116.551 24.9282 115.905 22.8519 115.902 20.0595C115.902 17.2558 116.548 15.1658 117.84 13.7897C119.133 12.4136 120.995 11.7249 123.426 11.7234H125.698ZM123.426 14.6253C121.815 14.6253 120.644 15.0549 119.913 15.914C119.182 16.7732 118.816 18.1586 118.814 20.0703C118.814 21.9705 119.173 23.3387 119.891 24.175C120.609 25.0112 121.787 25.4258 123.426 25.4186H125.694C127.288 25.4186 128.451 24.9969 129.184 24.1535C129.916 23.3101 130.282 21.9368 130.28 20.0338C130.28 18.1336 129.921 16.7567 129.203 15.9033C128.485 15.0498 127.318 14.6203 125.701 14.6145L123.426 14.6253Z" fill="#141414"/>
<path d="M125.7 28.5675H123.427C120.935 28.5675 118.996 27.8565 117.663 26.4496C116.329 25.0427 115.672 22.8969 115.672 20.0595C115.672 17.2221 116.347 15.0377 117.676 13.6157C119.005 12.1938 120.948 11.4678 123.44 11.4678H125.708C128.2 11.4678 130.141 12.1895 131.475 13.6157C132.808 15.042 133.476 17.2006 133.476 20.0595C133.476 22.9184 132.801 25.047 131.472 26.4475C130.143 27.8479 128.192 28.5675 125.7 28.5675ZM123.427 11.9683C121.077 11.9683 119.259 12.6384 118.022 13.9573C116.786 15.2761 116.153 17.3338 116.153 20.0595C116.153 22.7853 116.782 24.8043 118.02 26.1103C119.259 27.4162 121.075 28.0735 123.427 28.0735H125.695C128.047 28.0735 129.865 27.4141 131.102 26.1103C132.338 24.8065 132.969 22.7681 132.969 20.0595C132.969 17.351 132.345 15.2804 131.104 13.9616C129.863 12.6427 128.05 11.9726 125.7 11.9726L123.427 11.9683ZM125.695 25.6656H123.427C121.732 25.6656 120.482 25.2146 119.713 24.3253C118.944 23.4361 118.57 22.012 118.57 20.0595C118.57 18.1071 118.959 16.6379 119.726 15.7443C120.493 14.8508 121.749 14.3783 123.427 14.3783H125.695C127.375 14.3783 128.616 14.8379 129.385 15.7443C130.154 16.6508 130.529 18.0813 130.529 20.0402C130.529 21.9991 130.139 23.4339 129.372 24.321C128.605 25.2081 127.362 25.6656 125.7 25.6656H125.695ZM123.427 14.8701C121.9 14.8701 120.78 15.2718 120.101 16.0622C119.423 16.8527 119.063 18.2102 119.063 20.0595C119.063 21.9089 119.407 23.2191 120.088 24.0031C120.769 24.7871 121.883 25.1738 123.427 25.1738H125.695C127.203 25.1738 128.319 24.7764 128.997 23.9924C129.676 23.2084 130.036 21.8659 130.036 20.0338C130.036 18.2016 129.691 16.8656 129.008 16.0622C128.325 15.2589 127.222 14.8701 125.695 14.8701H123.427Z" fill="#141414"/>
<path d="M149.49 11.7234V14.6253H140.962C140.207 14.6253 139.656 14.8093 139.31 15.1773C138.959 15.5635 138.773 16.0717 138.793 16.5928C138.793 16.8382 138.83 17.0822 138.903 17.3166C138.979 17.5605 139.115 17.7818 139.297 17.961C139.511 18.1636 139.768 18.3149 140.049 18.4035C140.44 18.5213 140.849 18.5749 141.257 18.5624H145.154C146.101 18.531 147.046 18.6767 147.939 18.992C148.592 19.2282 149.182 19.6111 149.662 20.1111C150.074 20.5569 150.37 21.0968 150.524 21.6834C150.678 22.2609 150.757 22.8557 150.759 23.4533C150.765 24.1094 150.664 24.7622 150.462 25.3864C150.272 25.9634 149.951 26.489 149.525 26.9222C149.061 27.3798 148.501 27.7284 147.885 27.9425C147.104 28.2076 146.281 28.3327 145.456 28.3119H136.193V25.4186H145.563C146.352 25.4186 146.931 25.2275 147.302 24.8408C147.488 24.6421 147.633 24.4083 147.729 24.1532C147.824 23.8981 147.868 23.6266 147.857 23.3545C147.858 23.091 147.815 22.8292 147.732 22.5791C147.651 22.3266 147.507 22.0984 147.315 21.9154C147.083 21.7079 146.81 21.5526 146.513 21.46C146.102 21.3352 145.672 21.2772 145.242 21.2882H141.365C140.434 21.3149 139.505 21.1692 138.627 20.8586C137.989 20.6324 137.416 20.2559 136.956 19.761C136.56 19.3164 136.273 18.7863 136.118 18.2123C135.963 17.6526 135.884 17.0746 135.883 16.494C135.877 15.8481 135.972 15.2053 136.165 14.5888C136.347 14.0231 136.66 13.5081 137.078 13.0852C137.534 12.6354 138.087 12.2946 138.694 12.0886C139.457 11.8336 140.259 11.713 141.063 11.732L149.49 11.7234Z" fill="#141414"/>
<path d="M145.452 28.5675H135.935V25.1738H145.551C146.266 25.1738 146.792 25.0041 147.111 24.6711C147.276 24.4951 147.404 24.2879 147.487 24.0618C147.571 23.8357 147.608 23.5952 147.598 23.3545C147.598 23.1168 147.561 22.8806 147.488 22.6542C147.418 22.4401 147.296 22.2467 147.132 22.0915C146.926 21.9095 146.684 21.7733 146.421 21.692C146.035 21.5767 145.633 21.5238 145.23 21.5352H141.353C140.392 21.5662 139.433 21.4206 138.525 21.1056C137.859 20.8556 137.262 20.4514 136.784 19.9264C136.364 19.4526 136.059 18.8889 135.892 18.2789C135.732 17.6973 135.65 17.0971 135.649 16.494C135.644 15.8217 135.744 15.1528 135.946 14.5114C136.139 13.9071 136.471 13.3561 136.916 12.9026C137.399 12.4283 137.983 12.0679 138.624 11.848C139.413 11.5851 140.243 11.4594 141.075 11.4764H149.754V14.8701H140.965C140.282 14.8701 139.789 15.0312 139.494 15.3448C139.184 15.6851 139.022 16.1336 139.042 16.5928C139.043 16.8112 139.076 17.0283 139.141 17.2372C139.206 17.4414 139.321 17.6265 139.475 17.7763C139.662 17.9526 139.888 18.0841 140.134 18.1608C140.499 18.2688 140.879 18.3181 141.26 18.3068H145.157C146.136 18.2772 147.111 18.4287 148.035 18.7536C148.718 19.0072 149.335 19.411 149.84 19.935C150.277 20.4119 150.592 20.9875 150.758 21.6125C150.917 22.2102 150.999 22.826 151.001 23.4447C151.008 24.1305 150.904 24.813 150.693 25.4659C150.491 26.0781 150.15 26.6359 149.698 27.0962C149.21 27.5765 148.621 27.9433 147.975 28.1701C147.163 28.4485 146.31 28.583 145.452 28.5675ZM136.429 28.0756H145.452C146.248 28.0953 147.041 27.9761 147.796 27.7234C148.378 27.5205 148.907 27.1919 149.347 26.7611C149.746 26.3535 150.046 25.8596 150.223 25.3177C150.419 24.7157 150.515 24.086 150.508 23.4533C150.507 22.8731 150.431 22.2955 150.282 21.7349C150.137 21.1864 149.86 20.6818 149.474 20.2657C149.021 19.7952 148.466 19.4338 147.852 19.209C146.987 18.9075 146.073 18.7677 145.157 18.7966H141.26C140.823 18.8088 140.386 18.75 139.968 18.6226C139.651 18.5217 139.362 18.3506 139.121 18.1221C138.916 17.9197 138.762 17.6717 138.671 17.3982C138.59 17.1404 138.548 16.8717 138.548 16.6014C138.528 16.018 138.738 15.4499 139.132 15.0183C139.524 14.5995 140.142 14.3868 140.965 14.3868H149.25V11.9683H141.064C140.289 11.9513 139.517 12.0668 138.781 12.3098C138.209 12.5049 137.689 12.8257 137.258 13.2484C136.863 13.6462 136.568 14.1311 136.396 14.6639C136.216 15.2569 136.128 15.8743 136.138 16.494C136.137 17.053 136.209 17.6098 136.353 18.15C136.501 18.6875 136.77 19.1842 137.14 19.602C137.576 20.0702 138.119 20.4268 138.723 20.6416C139.569 20.9375 140.463 21.0758 141.359 21.0497H145.237C145.694 21.0387 146.15 21.1011 146.587 21.2345C146.918 21.3371 147.223 21.5108 147.479 21.7435C147.702 21.955 147.867 22.2186 147.962 22.5103C148.052 22.7877 148.098 23.0777 148.097 23.3695C148.108 23.6728 148.059 23.9752 147.952 24.2594C147.845 24.5436 147.683 24.804 147.475 25.0256C147.059 25.4551 146.413 25.6699 145.558 25.6699H136.429V28.0756Z" fill="#141414"/>
</g>
</g>
<defs>
<linearGradient id="paint0_linear_1010_26063" x1="6.13262" y1="-0.060269" x2="6.13262" y2="37.9474" gradientUnits="userSpaceOnUse">
<stop stop-color="#00498E"/>
<stop offset="0.94" stop-color="#00AEF0"/>
</linearGradient>
<linearGradient id="paint1_linear_1010_26063" x1="0.39204" y1="39.4984" x2="40.003" y2="19.0226" gradientUnits="userSpaceOnUse">
<stop offset="0.07" stop-color="#006059"/>
<stop offset="0.78" stop-color="#00A99E"/>
</linearGradient>
<linearGradient id="paint2_linear_1010_26063" x1="8.9803" y1="-3.12954" x2="30.234" y2="33.5969" gradientUnits="userSpaceOnUse">
<stop offset="0.16" stop-color="#59BA29"/>
<stop offset="0.26" stop-color="#4BAB25"/>
<stop offset="0.59" stop-color="#22811B"/>
<stop offset="0.85" stop-color="#096814"/>
<stop offset="1" stop-color="#005E12"/>
</linearGradient>
<clipPath id="clip0_1010_26063">
<rect width="151" height="39" fill="white"/>
</clipPath>
</defs>
</svg>
